<?xml version="1.0" standalone="no"?>
<!DOCTYPE svg PUBLIC "-//W3C//DTD SVG 20010904//EN"
 "http://www.w3.org/TR/2001/REC-SVG-20010904/DTD/svg10.dtd">
<svg version="1.0" xmlns="http://www.w3.org/2000/svg"
 width="382.000000pt" height="382.000000pt" viewBox="0 0 382.000000 382.000000"
 preserveAspectRatio="xMidYMid meet">
<metadata>
Created by potrace 1.14, written by Peter Selinger 2001-2017
</metadata>
<g transform="translate(0.000000,382.000000) scale(0.100000,-0.100000)"
fill="#000000" stroke="none">
<path d="M10 3815 c0 0 0 -856 0 -1903 l0 -1902 1462 0 c805 0 1662 0 1906 0
l442 0 0 1900 0 1900 -1905 2 c-1048 2 -1905 3 -1905 3z m3800 -1905 l0 -1890
-1895 0 -1895 0 0 1890 0 1890 1895 0 1895 0 0 -1890z"/>
<path d="M1908 3599 c-7 -5 -8 -9 -3 -9 78 -4 131 -12 139 -20 6 -6 16 -5 29
1 13 7 17 7 13 1 -3 -6 8 -13 26 -17 18 -4 38 -12 45 -17 7 -5 13 -5 17 0 3 6
-4 13 -17 18 -17 6 -12 8 27 11 45 4 52 1 87 -33 20 -20 43 -34 51 -31 10 4 9
6 -3 6 -8 1 -31 17 -50 37 -34 36 -35 36 -103 31 -40 -3 -62 -1 -55 4 9 5 -9
9 -46 9 -33 1 -79 5 -102 9 -23 4 -48 4 -55 0z"/>
<path d="M1637 3573 c-3 -4 15 -6 40 -4 28 2 43 -1 40 -6 -4 -6 4 -8 18 -5 14
2 25 7 25 11 0 9 -117 13 -123 4z"/>
<path d="M1574 3548 l-19 -23 23 19 c21 18 27 26 19 26 -2 0 -12 -10 -23 -22z"/>
<path d="M2205 3533 c11 -3 27 -10 35 -17 13 -10 13 -9 1 7 -7 9 -23 16 -35
16 -20 -1 -20 -2 -1 -6z"/>
<path d="M1535 3510 c-3 -6 1 -7 9 -4 18 7 21 14 7 14 -6 0 -13 -4 -16 -10z"/>
<path d="M2348 3493 c7 -3 16 -2 19 1 4 3 -2 6 -13 5 -11 0 -14 -3 -6 -6z"/>
<path d="M2117 3483 c-8 -14 7 -38 26 -39 18 -2 18 -1 0 20 -10 11 -19 22 -19
24 -1 2 -4 0 -7 -5z"/>
<path d="M2388 3483 c7 -3 16 -2 19 1 4 3 -2 6 -13 5 -11 0 -14 -3 -6 -6z"/>
<path d="M1393 3473 c-13 -2 -23 -8 -23 -13 0 -5 14 -4 30 1 27 10 42 21 23
18 -5 -1 -18 -4 -30 -6z"/>
<path d="M1695 3455 c-30 -25 -30 -25 -3 -14 15 7 29 18 32 25 7 18 6 18 -29
-11z"/>
<path d="M1916 3471 c-4 -7 -5 -15 -2 -18 9 -9 19 4 14 18 -4 11 -6 11 -12 0z"/>
<path d="M2311 3470 c-13 -8 -3 -19 37 -39 32 -17 27 -5 -5 14 l-28 16 28 -6
c17 -3 26 -2 23 3 -8 14 -42 21 -55 12z"/>
<path d="M2440 3466 c14 -8 27 -12 29 -10 6 6 -1 11 -29 18 l-25 7 25 -15z"/>
<path d="M1521 3454 c0 -11 3 -14 6 -6 3 7 2 16 -1 19 -3 4 -6 -2 -5 -13z"/>
<path d="M1357 3415 c-4 -8 -2 -17 3 -20 6 -4 10 3 10 14 0 25 -6 27 -13 6z"/>
<path d="M2470 3408 c0 -7 10 -14 21 -15 12 -1 20 -1 18 0 -2 2 -12 9 -21 16
-15 11 -18 11 -18 -1z"/>
<path d="M2061 3343 c-16 -17 -11 -25 8 -14 7 5 12 13 10 19 -2 6 -10 4 -18
-5z"/>
<path d="M2324 3351 c-5 -5 -20 -11 -34 -13 -20 -3 -17 -5 13 -9 40 -5 50 -1
38 19 -4 7 -11 8 -17 3z"/>
<path d="M1770 3340 c0 -5 5 -10 10 -10 6 0 10 5 10 10 0 6 -4 10 -10 10 -5 0
-10 -4 -10 -10z"/>
<path d="M2632 3336 c7 -8 15 -12 17 -11 5 6 -10 25 -20 25 -5 0 -4 -6 3 -14z"/>
<path d="M2627 3280 c-3 -11 -1 -23 4 -26 5 -3 9 6 9 20 0 31 -6 34 -13 6z"/>
<path d="M1197 3271 c-3 -13 -1 -18 9 -14 7 2 10 11 7 19 -7 19 -10 18 -16 -5z"/>
<path d="M2265 3217 c-8 -19 -2 -31 13 -26 5 2 6 13 2 24 -7 19 -8 19 -15 2z"/>
<path d="M1111 3204 c0 -11 3 -14 6 -6 3 7 2 16 -1 19 -3 4 -6 -2 -5 -13z"/>
<path d="M1305 3210 c-3 -5 -1 -10 4 -10 6 0 11 5 11 10 0 6 -2 10 -4 10 -3 0
-8 -4 -11 -10z"/>
<path d="M1567 3206 c-4 -10 -1 -13 9 -9 15 6 19 23 5 23 -5 0 -11 -7 -14 -14z"/>
<path d="M1910 3210 c0 -5 5 -10 10 -10 6 0 10 5 10 10 0 6 -4 10 -10 10 -5 0
-10 -4 -10 -10z"/>
<path d="M2525 3212 c-13 -10 -17 -32 -6 -32 6 0 13 5 16 10 5 8 12 7 23 -2
12 -9 11 -6 -2 10 -11 12 -20 22 -20 22 -1 0 -5 -4 -11 -8z"/>
<path d="M2714 3177 c0 -41 2 -43 60 -83 67 -45 74 -61 53 -122 -14 -39 -13
-42 7 -62 12 -11 26 -20 30 -20 5 0 -2 8 -14 18 -22 17 -22 22 -12 64 7 25 14
52 17 60 4 9 -18 30 -65 62 -63 44 -69 51 -64 75 10 40 10 43 -1 47 -6 2 -10
-15 -11 -39z"/>
<path d="M1117 3151 c-4 -17 -3 -21 5 -13 5 5 8 16 6 23 -3 8 -7 3 -11 -10z"/>
<path d="M1079 3113 c-13 -16 -12 -17 4 -4 9 7 17 15 17 17 0 8 -8 3 -21 -13z"/>
<path d="M2501 3114 c0 -11 3 -14 6 -6 3 7 2 16 -1 19 -3 4 -6 -2 -5 -13z"/>
<path d="M1039 3083 c-13 -16 -12 -17 4 -4 9 7 17 15 17 17 0 8 -8 3 -21 -13z"/>
<path d="M1348 3050 c-3 -22 -2 -27 8 -19 6 5 10 19 7 29 -7 27 -10 25 -15
-10z"/>
<path d="M2126 3064 c-9 -24 -7 -36 6 -32 12 4 19 48 7 48 -4 0 -10 -7 -13
-16z"/>
<path d="M2486 3062 c-4 -13 -5 -26 -2 -29 10 -11 18 4 14 29 l-4 23 -8 -23z"/>
<path d="M1002 3061 c-8 -5 -12 -17 -10 -27 2 -15 5 -13 15 9 14 30 14 30 -5
18z"/>
<path d="M2718 3040 c2 -16 14 -37 26 -47 l21 -18 -19 22 c-10 12 -16 29 -13
37 3 8 0 19 -7 25 -10 8 -12 4 -8 -19z"/>
<path d="M1707 3046 c-4 -10 -1 -13 9 -9 7 3 14 9 14 14 0 14 -17 10 -23 -5z"/>
<path d="M1013 2948 c2 -7 -5 -24 -17 -38 l-21 -25 27 24 c22 19 29 51 11 51
-3 0 -3 -6 0 -12z"/>
<path d="M2678 2877 c-3 -15 -1 -30 4 -33 13 -9 15 -3 8 31 l-6 30 -6 -28z"/>
<path d="M1913 2863 c-3 -10 -8 -21 -10 -25 -2 -4 3 -5 11 -2 18 7 28 31 15
39 -5 4 -12 -2 -16 -12z"/>
<path d="M2355 2867 c-4 -10 -5 -21 -1 -24 10 -10 18 4 13 24 -4 17 -4 17 -12
0z"/>
<path d="M1485 2859 c-11 -17 1 -21 15 -4 8 9 8 15 2 15 -6 0 -14 -5 -17 -11z"/>
<path d="M2883 2832 l-2 -37 13 30 c13 29 12 45 -2 45 -4 0 -8 -17 -9 -38z"/>
<path d="M957 2781 c-4 -17 -3 -21 5 -13 5 5 8 16 6 23 -3 8 -7 3 -11 -10z"/>
<path d="M2870 2780 c0 -9 21 -36 47 -60 46 -43 47 -44 12 -5 -20 22 -41 49
-47 60 -8 15 -11 16 -12 5z"/>
<path d="M919 2723 l-24 -28 28 24 c25 23 32 31 24 31 -2 0 -14 -12 -28 -27z"/>
<path d="M2846 2715 c-3 -8 -1 -15 4 -15 6 0 10 7 10 15 0 8 -2 15 -4 15 -2 0
-6 -7 -10 -15z"/>
<path d="M2225 2700 c-4 -6 -11 -7 -17 -4 -7 4 -8 2 -4 -5 6 -9 11 -9 22 0 14
11 18 19 10 19 -3 0 -8 -5 -11 -10z"/>
<path d="M862 2657 c-15 -16 -18 -27 -12 -37 8 -12 10 -12 10 4 0 11 7 28 17
38 24 26 10 22 -15 -5z"/>
<path d="M2977 2645 c10 -13 22 -25 27 -25 5 0 -1 11 -14 25 -30 32 -36 32
-13 0z"/>
<path d="M1250 2636 c0 -22 3 -27 11 -19 8 8 8 16 0 30 -9 16 -10 14 -11 -11z"/>
<path d="M2160 2640 c-9 -17 -8 -20 10 -20 11 0 20 6 20 14 0 24 -18 28 -30 6z"/>
<path d="M2587 2647 c-4 -12 1 -26 15 -40 11 -12 18 -16 13 -9 -4 8 -10 25
-14 40 -6 22 -8 23 -14 9z"/>
<path d="M1673 2635 c0 -11 4 -12 14 -4 7 6 13 13 13 15 0 2 -6 4 -13 4 -8 0
-14 -7 -14 -15z"/>
<path d="M2450 2630 c0 -5 5 -10 11 -10 5 0 7 5 4 10 -3 6 -8 10 -11 10 -2 0
-4 -4 -4 -10z"/>
<path d="M2840 2616 c0 -31 6 -34 13 -6 3 11 1 23 -4 26 -5 3 -9 -6 -9 -20z"/>
<path d="M2976 2595 c-9 -26 -7 -32 5 -12 6 10 9 21 6 23 -2 3 -7 -2 -11 -11z"/>
<path d="M2880 2551 c0 -6 4 -13 10 -16 6 -3 7 1 4 9 -7 18 -14 21 -14 7z"/>
<path d="M2942 2505 c-14 -31 -15 -45 -4 -45 5 0 9 6 9 13 0 6 3 22 7 35 10
30 2 28 -12 -3z"/>
<path d="M890 2505 c0 -5 5 -17 10 -25 5 -8 10 -10 10 -5 0 6 -5 17 -10 25 -5
8 -10 11 -10 5z"/>
<path d="M2416 2439 c-3 -15 -12 -33 -20 -42 -14 -13 -13 -15 4 -20 14 -4 20
0 20 11 0 10 8 31 19 47 17 29 17 31 0 31 -11 0 -19 -10 -23 -27z"/>
<path d="M2775 2430 c-3 -11 -13 -27 -21 -35 -14 -13 -14 -15 0 -15 8 0 19 -6
23 -14 5 -9 8 5 8 35 0 27 -1 49 -2 49 -1 0 -5 -9 -8 -20z"/>
<path d="M2964 2427 c11 -18 14 -36 10 -50 -6 -19 -5 -20 10 -8 21 17 20 20
-11 56 -26 30 -26 30 -9 2z"/>
<path d="M1920 2430 c0 -8 -3 -25 -6 -37 -4 -13 -2 -23 4 -23 16 0 22 28 12
52 -5 14 -9 17 -10 8z"/>
<path d="M860 2416 c-9 -11 -9 -19 0 -33 7 -11 10 -12 7 -3 -2 8 0 23 5 33 11
21 5 22 -12 3z"/>
<path d="M1071 2394 c0 -11 3 -14 6 -6 3 7 2 16 -1 19 -3 4 -6 -2 -5 -13z"/>
<path d="M1437 2403 c-4 -3 -7 -15 -7 -27 0 -20 0 -20 15 0 8 10 15 22 15 27
0 9 -14 9 -23 0z"/>
<path d="M2696 2397 c3 -10 9 -15 12 -12 3 3 0 11 -7 18 -10 9 -11 8 -5 -6z"/>
<path d="M875 2321 c0 -29 3 -37 12 -29 8 7 9 17 1 39 -5 16 -11 29 -12 29 -1
0 -2 -18 -1 -39z"/>
<path d="M2952 2321 c-6 -17 -9 -31 -6 -31 7 0 25 52 20 57 -2 2 -8 -10 -14
-26z"/>
<path d="M2972 2265 c2 -5 17 -36 33 -68 l30 -58 -35 -67 c-19 -36 -43 -75
-53 -85 -18 -18 -18 -21 -2 -63 12 -33 14 -48 6 -58 -8 -10 -3 -13 24 -13 20
0 44 -8 57 -19 12 -10 18 -13 14 -6 -4 6 -3 12 2 12 8 0 22 -22 22 -35 0 -2
-21 3 -47 11 -27 8 -55 13 -63 10 -9 -2 -7 -4 6 -5 26 -1 48 -26 39 -42 -6 -8
-2 -8 13 0 11 6 32 11 46 11 15 0 26 6 26 13 0 22 -46 59 -82 66 -27 6 -35 14
-47 47 -14 41 -14 41 36 130 l51 89 -29 55 c-27 53 -54 96 -47 75z"/>
<path d="M2646 2218 c3 -5 10 -6 15 -3 13 9 11 12 -6 12 -8 0 -12 -4 -9 -9z"/>
<path d="M812 2175 c-7 -14 -12 -31 -12 -38 1 -7 7 3 16 22 17 39 13 54 -4 16z"/>
<path d="M1221 2148 c-1 -33 4 -35 20 -7 6 13 7 19 1 15 -6 -3 -13 0 -15 6 -3
7 -6 1 -6 -14z"/>
<path d="M2607 2150 c-21 -25 -22 -32 0 -28 9 2 17 13 18 26 2 27 3 26 -18 2z"/>
<path d="M1656 2144 c-8 -22 1 -31 16 -16 9 9 9 15 1 23 -7 7 -12 5 -17 -7z"/>
<path d="M2172 2148 c-16 -16 -15 -28 2 -28 19 0 27 13 17 28 -5 9 -10 9 -19
0z"/>
<path d="M2875 2130 c3 -5 12 -7 20 -3 21 7 19 13 -6 13 -11 0 -18 -4 -14 -10z"/>
<path d="M2900 2065 c0 -5 5 -17 10 -25 5 -8 10 -10 10 -5 0 6 -5 17 -10 25
-5 8 -10 11 -10 5z"/>
<path d="M1922 1958 c-2 -71 -5 -89 -19 -97 -15 -9 -12 -10 16 -11 26 0 31 3
23 13 -6 7 -13 51 -15 97 l-3 85 -2 -87z"/>
<path d="M890 1972 c6 -13 14 -21 18 -18 3 4 -2 14 -12 24 -18 16 -18 16 -6
-6z"/>
<path d="M2776 1935 c-9 -26 -7 -32 5 -12 6 10 9 21 6 23 -2 3 -7 -2 -11 -11z"/>
<path d="M1433 1883 c1 -26 12 -30 21 -7 3 8 2 13 -3 9 -5 -3 -11 1 -14 7 -3
7 -4 3 -4 -9z"/>
<path d="M2400 1883 c-8 -12 -32 -41 -52 -65 -32 -38 -36 -48 -29 -74 8 -29 8
-29 15 13 9 47 60 102 99 104 16 1 17 3 5 6 -9 2 -18 12 -20 21 -3 13 -5 13
-18 -5z"/>
<path d="M2743 1881 c-8 -13 -20 -17 -40 -15 l-28 4 28 -9 c36 -12 57 -30 57
-48 0 -10 -7 -14 -19 -10 -10 2 -25 1 -32 -4 -10 -6 -11 -9 -1 -9 6 0 12 -7
12 -15 0 -9 6 -12 17 -8 14 5 15 1 10 -30 -3 -21 -2 -37 4 -37 10 0 12 11 9
53 -1 15 4 34 10 42 12 15 5 55 -10 55 -6 0 -6 10 0 25 11 29 0 33 -17 6z"/>
<path d="M871 1883 c-1 -7 -9 -13 -18 -13 -10 0 -25 -5 -33 -10 -11 -7 -5 -8
20 -4 42 8 44 9 37 26 -4 10 -6 10 -6 1z"/>
<path d="M2200 1860 c0 -5 5 -10 10 -10 6 0 10 5 10 10 0 6 -4 10 -10 10 -5 0
-10 -4 -10 -10z"/>
<path d="M2273 1862 c-8 -5 -8 -12 3 -26 8 -11 14 -15 14 -9 0 6 3 18 6 27 7
17 -3 21 -23 8z"/>
<path d="M2577 1848 c-4 -15 -2 -18 15 -12 16 5 20 3 15 -9 -4 -11 -2 -14 8
-11 7 3 24 0 37 -6 22 -11 22 -10 4 4 -11 9 -23 16 -28 16 -4 0 -8 5 -8 10 0
6 8 10 17 10 28 0 4 15 -27 16 -20 1 -30 -4 -33 -18z"/>
<path d="M2810 1861 c0 -5 6 -11 14 -14 8 -3 16 -20 18 -38 l3 -31 19 21 c17
18 17 21 3 15 -16 -6 -21 5 -20 44 1 6 -8 12 -18 12 -10 0 -19 -4 -19 -9z"/>
<path d="M766 1831 c-10 -11 -16 -26 -13 -33 4 -10 6 -10 6 1 1 8 8 23 18 33
9 10 14 18 11 18 -3 0 -13 -9 -22 -19z"/>
<path d="M2096 1805 c-11 -8 -17 -17 -14 -20 2 -3 13 4 23 15 21 23 18 25 -9
5z"/>
<path d="M2231 1812 c-1 -9 -8 -11 -21 -7 -11 4 -20 2 -20 -4 0 -6 3 -11 8
-12 4 0 16 -2 26 -4 11 -2 27 0 35 5 14 8 14 9 -1 10 -9 0 -19 6 -21 13 -4 9
-6 9 -6 -1z"/>
<path d="M960 1800 c0 -6 7 -10 15 -10 8 0 15 2 15 4 0 2 -7 6 -15 10 -8 3
-15 1 -15 -4z"/>
<path d="M1835 1799 c-4 -6 -5 -12 -2 -15 2 -3 7 2 10 11 7 17 1 20 -8 4z"/>
<path d="M780 1797 c0 -3 12 -12 26 -22 15 -9 23 -12 20 -6 -7 11 -46 35 -46
28z"/>
<path d="M1603 1793 c9 -2 23 -2 30 0 6 3 -1 5 -18 5 -16 0 -22 -2 -12 -5z"/>
<path d="M2477 1759 c-2 -19 0 -38 6 -44 7 -7 8 -6 3 3 -4 7 -2 19 4 27 8 9 8
20 2 31 -8 14 -10 11 -15 -17z"/>
<path d="M2515 1750 c-16 -17 -16 -20 -3 -15 9 4 19 13 22 21 7 19 2 18 -19
-6z"/>
<path d="M2826 1743 c-6 -14 -5 -15 5 -6 7 7 10 15 7 18 -3 3 -9 -2 -12 -12z"/>
<path d="M2966 1715 c-9 -13 -16 -28 -16 -32 0 -5 -16 -33 -36 -63 -22 -35
-26 -44 -10 -25 14 17 40 56 56 88 32 58 35 76 6 32z"/>
<path d="M2391 1703 c-1 -6 -4 -20 -7 -30 -5 -17 -5 -17 6 0 6 10 9 23 6 30
-3 9 -5 9 -5 0z"/>
<path d="M2425 1670 c-12 -13 -14 -20 -5 -20 9 0 8 -7 -4 -25 -24 -36 -11 -31
15 7 13 17 18 28 11 24 -16 -9 -16 6 0 22 7 7 10 12 7 12 -3 0 -14 -9 -24 -20z"/>
<path d="M2677 1684 c-4 -4 -7 -14 -7 -23 0 -11 3 -12 11 -4 6 6 10 16 7 23
-2 6 -7 8 -11 4z"/>
<path d="M2740 1678 c-4 -31 -5 -33 -13 -45 -5 -7 -5 -13 -2 -13 4 0 -8 -12
-26 -27 -18 -16 -38 -26 -44 -25 -5 2 -7 0 -3 -4 4 -4 -5 -23 -21 -43 -49 -64
-45 -68 11 -9 52 56 55 57 88 48 43 -12 43 -12 35 0 -3 6 -18 10 -33 10 -25 1
-26 2 -9 14 20 15 53 11 78 -10 9 -8 18 -12 20 -9 3 2 5 -5 6 -16 2 -17 -3
-19 -35 -14 l-37 5 40 -18 40 -19 -75 -72 c-86 -83 -240 -180 -273 -172 -5 1
-5 -4 -1 -10 5 -9 2 -10 -10 -6 -9 4 -15 3 -12 -2 3 -5 -16 -23 -43 -40 -77
-50 -101 -76 -101 -111 0 -43 17 -70 43 -69 l22 0 -22 9 c-36 15 -40 54 -9 99
27 39 99 87 115 76 14 -8 60 16 55 29 -3 7 18 25 46 40 73 40 186 132 253 207
57 64 77 99 35 63 -12 -10 -18 -13 -14 -6 12 20 -20 59 -54 66 -23 4 -31 10
-26 21 3 8 1 15 -4 15 -5 0 -11 12 -13 28 -2 15 -5 20 -7 10z m-240 -458 c-8
-5 -19 -10 -25 -10 -5 0 -3 5 5 10 8 5 20 10 25 10 6 0 3 -5 -5 -10z"/>
<path d="M2360 1601 c0 -4 -11 -6 -25 -3 -16 3 -33 -2 -46 -14 -27 -24 -81
-114 -69 -114 6 0 15 11 20 25 7 19 19 26 52 31 39 7 40 8 17 17 -21 9 -22 11
-5 15 15 3 16 6 5 14 -10 7 0 8 31 5 25 -3 40 -3 33 0 -7 2 -9 11 -6 19 3 8 2
14 -1 14 -3 0 -6 -4 -6 -9z"/>
<path d="M1867 1593 c-3 -5 13 -9 34 -10 24 -2 38 1 34 7 -7 12 -62 13 -68 3z"/>
<path d="M2625 1567 c-10 -18 -25 -43 -32 -56 -12 -21 -12 -22 3 -10 16 13 58
89 52 94 -2 2 -12 -11 -23 -28z"/>
<path d="M1965 1580 c3 -5 8 -10 11 -10 2 0 4 5 4 10 0 6 -5 10 -11 10 -5 0
-7 -4 -4 -10z"/>
<path d="M1540 1566 c0 -2 7 -7 16 -10 8 -3 12 -2 9 4 -6 10 -25 14 -25 6z"/>
<path d="M1842 1553 c-16 -29 -17 -28 23 -29 23 0 35 4 35 13 0 7 -9 13 -19
13 -11 0 -21 6 -23 12 -3 8 -9 5 -16 -9z"/>
<path d="M958 1544 c6 -11 19 -27 28 -35 16 -13 16 -12 6 7 -6 11 -19 27 -28
35 -16 13 -16 12 -6 -7z"/>
<path d="M1955 1552 c-21 -15 -13 -29 16 -28 20 1 29 6 27 16 -4 17 -28 24
-43 12z"/>
<path d="M1910 1540 c0 -5 5 -10 10 -10 6 0 10 5 10 10 0 6 -4 10 -10 10 -5 0
-10 -4 -10 -10z"/>
<path d="M2400 1542 c-23 -4 -24 -5 -5 -13 18 -7 18 -8 -5 -8 -16 -1 -21 -4
-12 -9 10 -7 9 -18 -2 -58 -13 -42 -13 -46 -1 -30 8 11 18 34 21 53 3 18 12
33 20 33 8 0 14 2 14 4 0 2 3 11 6 20 3 9 2 15 -2 15 -5 -1 -20 -4 -34 -7z"/>
<path d="M2679 1525 c-13 -12 -33 -32 -44 -46 l-20 -24 24 20 c21 17 23 17 18
3 -4 -12 -2 -15 9 -11 12 4 12 8 2 21 -11 13 -10 14 2 10 8 -2 23 6 34 19 25
32 31 23 11 -16 -8 -17 -13 -31 -10 -31 6 0 45 61 45 71 0 14 -50 3 -71 -16z"/>
<path d="M2171 1524 c0 -11 3 -14 6 -6 3 7 2 16 -1 19 -3 4 -6 -2 -5 -13z"/>
<path d="M1587 1483 c3 -7 6 -13 8 -13 2 0 5 6 8 13 3 8 -1 14 -8 14 -7 0 -11
-6 -8 -14z"/>
<path d="M1020 1476 c0 -2 8 -10 18 -17 15 -13 16 -12 3 4 -13 16 -21 21 -21
13z"/>
<path d="M2541 1439 c-13 -17 -20 -33 -17 -36 3 -3 13 9 24 26 10 17 22 28 27
23 5 -4 5 -1 1 6 -10 16 -9 16 -35 -19z"/>
<path d="M1616 1445 c-9 -26 -7 -32 5 -12 6 10 9 21 6 23 -2 3 -7 -2 -11 -11z"/>
<path d="M1633 1416 c3 -8 11 -33 17 -56 6 -23 13 -40 16 -38 5 6 -25 108 -32
108 -4 0 -4 -6 -1 -14z"/>
<path d="M2615 1360 c-27 -27 -46 -50 -43 -50 8 0 40 30 77 73 40 45 19 31
-34 -23z"/>
<path d="M1245 1380 c10 -11 20 -20 23 -20 3 0 -3 9 -13 20 -10 11 -20 20 -23
20 -3 0 3 -9 13 -20z"/>
<path d="M2331 1364 c-12 -20 -20 -38 -18 -41 3 -2 15 12 27 32 12 20 20 38
17 41 -2 3 -14 -12 -26 -32z"/>
<path d="M1110 1386 c0 -2 8 -10 18 -17 15 -13 16 -12 3 4 -13 16 -21 21 -21
13z"/>
<path d="M2495 1382 c-5 -4 -16 -14 -22 -23 -10 -13 -10 -16 1 -16 8 0 19 11
25 24 11 25 11 26 -4 15z"/>
<path d="M2121 1364 c0 -11 3 -14 6 -6 3 7 2 16 -1 19 -3 4 -6 -2 -5 -13z"/>
<path d="M1340 1296 c0 -2 8 -10 18 -17 15 -13 16 -12 3 4 -13 16 -21 21 -21
13z"/>
<path d="M1430 1265 c13 -14 26 -25 28 -25 3 0 -5 11 -18 25 -13 14 -26 25
-28 25 -3 0 5 -11 18 -25z"/>
<path d="M1270 1276 c0 -2 16 -13 36 -25 19 -12 32 -16 29 -11 -7 11 -65 43
-65 36z"/>
<path d="M2243 1243 c-10 -16 -20 -30 -23 -33 -18 -16 -60 -102 -59 -122 1
-20 2 -21 6 -3 3 11 16 34 29 51 13 17 20 35 16 39 -4 3 -2 6 3 5 19 -4 38 0
32 7 -4 3 -2 12 4 20 9 10 8 13 -1 13 -9 0 -8 7 4 25 9 14 14 25 11 25 -2 0
-12 -12 -22 -27z"/>
<path d="M2053 1239 c-13 -5 -23 -11 -23 -13 0 -3 7 -3 15 0 9 4 15 0 15 -7 0
-9 4 -7 11 4 14 23 10 27 -18 16z"/>
<path d="M2319 1230 c-12 -19 -30 -26 -63 -29 -5 -1 -6 -4 -3 -8 4 -3 1 -13
-6 -21 -10 -13 -9 -14 10 -4 12 7 25 17 28 22 3 6 11 10 18 10 6 0 -5 -17 -25
-37 -41 -44 -50 -64 -37 -84 7 -11 9 -9 9 8 0 12 15 42 34 66 19 25 31 49 28
53 -4 4 1 4 10 1 23 -8 43 17 24 32 -10 9 -16 7 -27 -9z"/>
<path d="M1487 1218 c9 -10 17 -18 19 -18 1 0 0 8 -3 18 -2 10 -11 19 -19 19
-11 0 -11 -4 3 -19z"/>
<path d="M1760 1228 c0 -6 3 -8 6 -5 14 14 65 -29 84 -70 11 -24 20 -48 20
-55 0 -6 3 -9 6 -5 3 3 3 24 -1 47 -6 35 -14 46 -53 71 -50 32 -62 35 -62 17z"/>
<path d="M1921 1220 c-1 -14 -4 -36 -6 -50 l-6 -25 11 25 c6 13 9 36 7 50 l-4
25 -2 -25z"/>
<path d="M1385 1206 c22 -13 59 -42 83 -62 49 -44 56 -83 20 -109 -20 -15 -21
-16 -4 -13 11 2 25 17 32 34 11 27 10 35 -7 62 -18 30 -107 96 -147 108 -9 3
1 -6 23 -20z"/>
<path d="M1966 1167 c-4 -27 -6 -51 -3 -53 8 -9 23 63 17 81 -5 15 -9 7 -14
-28z"/>
<path d="M1523 1177 c0 -8 6 -14 14 -14 9 0 10 4 2 14 -6 7 -12 13 -14 13 -1
0 -2 -6 -2 -13z"/>
<path d="M2110 1156 c0 -8 -3 -22 -7 -32 -4 -11 -3 -15 4 -11 13 8 23 57 12
57 -5 0 -9 -6 -9 -14z"/>
<path d="M2220 1135 c-6 -8 -10 -21 -8 -31 2 -11 7 -6 15 15 13 34 11 38 -7
16z"/>
<path d="M1440 1005 c-7 -9 -11 -17 -9 -20 3 -2 10 5 17 15 14 24 10 26 -8 5z"/>
<path d="M2401 1001 c16 -24 5 -49 -26 -61 -14 -5 -24 -15 -23 -22 2 -10 -89
-14 -442 -18 -245 -3 -438 -6 -429 -8 45 -6 65 -85 33 -130 -30 -43 -94 -82
-136 -82 l-38 0 2 -42 1 -43 4 38 c4 35 6 37 39 37 40 0 112 48 138 92 18 30
21 80 6 109 -11 19 -3 19 390 19 l401 0 -12 -21 c-25 -47 5 -126 56 -151 15
-7 13 -3 -6 15 -35 32 -49 59 -49 95 0 29 26 62 48 62 7 0 12 8 12 19 0 10 9
21 20 24 11 3 23 12 26 21 8 21 -3 66 -16 66 -6 0 -5 -8 1 -19z"/>
<path d="M1430 951 c0 -10 19 -25 25 -20 1 2 -3 10 -11 17 -8 7 -14 8 -14 3z"/>
<path d="M1470 929 c0 -5 9 -9 20 -9 11 0 20 2 20 4 0 2 -9 6 -20 9 -11 3 -20
1 -20 -4z"/>
<path d="M1800 930 l-35 -7 38 -2 c20 0 37 4 37 9 0 6 -1 9 -2 9 -2 -1 -19 -5
-38 -9z"/>
<path d="M1900 930 c0 -7 74 -10 212 -10 134 1 207 5 198 10 -21 13 -410 13
-410 0z"/>
<path d="M2403 695 c18 -13 17 -14 -5 -18 -13 -2 1 -5 30 -6 l52 -1 0 -54 c0
-54 0 -55 -32 -59 -19 -2 -9 -4 22 -4 30 0 47 1 38 4 -15 4 -18 16 -18 62 l0
57 -52 17 c-40 12 -48 13 -35 2z"/>
<path d="M1928 673 c18 -2 45 -2 60 0 15 2 0 4 -33 4 -33 0 -45 -2 -27 -4z"/>
<path d="M2102 673 c48 -2 129 -2 180 0 51 1 12 3 -87 3 -99 0 -141 -2 -93 -3z"/>
<path d="M1337 570 c-3 -12 0 -20 8 -20 8 0 11 8 8 20 -3 11 -7 20 -8 20 -1 0
-5 -9 -8 -20z"/>
<path d="M2048 553 c56 -2 148 -2 205 0 56 1 10 3 -103 3 -113 0 -159 -2 -102
-3z"/>
<path d="M2570 536 c0 -2 7 -7 16 -10 8 -3 12 -2 9 4 -6 10 -25 14 -25 6z"/>
<path d="M1116 365 c-9 -26 -7 -32 5 -12 6 10 9 21 6 23 -2 3 -7 -2 -11 -11z"/>
<path d="M1056 242 c-22 -27 -24 -32 -7 -17 20 17 47 55 39 55 -2 0 -16 -17
-32 -38z"/>
<path d="M2879 157 c5 -5 19 -7 32 -5 20 3 19 5 -9 9 -20 3 -29 2 -23 -4z"/>
<path d="M890 151 c0 -4 11 -6 25 -3 14 2 25 6 25 8 0 2 -11 4 -25 4 -14 0
-25 -4 -25 -9z"/>
<path d="M2518 153 c12 -2 32 -2 45 0 12 2 2 4 -23 4 -25 0 -35 -2 -22 -4z"/>
<path d="M2648 153 c7 -3 16 -2 19 1 4 3 -2 6 -13 5 -11 0 -14 -3 -6 -6z"/>
<path d="M891 44 c0 -11 3 -14 6 -6 3 7 2 16 -1 19 -3 4 -6 -2 -5 -13z"/>
</g>
</svg>
